<?xml version="1.0" encoding="UTF-8" standalone="no"?>
<svg
   id="Layer_2"
   data-name="Layer 2"
   viewBox="0 0 1313.65 237.13"
   version="1.1"
   sodipodi:docname="logo_text_light.svg"
   inkscape:version="1.3.2 (1:1.3.2+202311252150+091e20ef0f)"
   xmlns:inkscape="http://www.inkscape.org/namespaces/inkscape"
   xmlns:sodipodi="http://sodipodi.sourceforge.net/DTD/sodipodi-0.dtd"
   xmlns:xlink="http://www.w3.org/1999/xlink"
   xmlns="http://www.w3.org/2000/svg"
   xmlns:svg="http://www.w3.org/2000/svg">
  <sodipodi:namedview
     id="namedview12"
     pagecolor="#ffffff"
     bordercolor="#000000"
     borderopacity="0.25"
     inkscape:showpageshadow="2"
     inkscape:pageopacity="0.0"
     inkscape:pagecheckerboard="0"
     inkscape:deskcolor="#d1d1d1"
     inkscape:zoom="0.33103997"
     inkscape:cx="886.59988"
     inkscape:cy="271.87049"
     inkscape:window-width="1366"
     inkscape:window-height="646"
     inkscape:window-x="0"
     inkscape:window-y="32"
     inkscape:window-maximized="1"
     inkscape:current-layer="Layer_2" />
  <defs
     id="defs4">
    <style
       id="style1">.cls-1{fill:url(#White_Black);}.cls-2{fill:url(#White_Black-2);}.cls-3{fill:url(#White_Black-3);}.cls-4{mask:url(#mask);}.cls-5{mask:url(#mask-2);}.cls-6{mask:url(#mask-3);}.cls-7{fill:#fff;}</style>
    <linearGradient
       id="White_Black"
       x1="-3091.62"
       y1="1087.01"
       x2="-3242.36"
       y2="985.74"
       gradientTransform="translate(-1237.09 -348.5) rotate(-180)"
       gradientUnits="userSpaceOnUse">
      <stop
         offset="0"
         stop-color="#fff"
         id="stop1" />
      <stop
         offset="1"
         stop-color="#231f20"
         id="stop2" />
    </linearGradient>
    <linearGradient
       id="White_Black-2"
       x1="2944.24"
       y1="1429.35"
       x2="2458.42"
       y2="1102.96"
       gradientTransform="translate(-3177.9 -3507.38) rotate(90)"
       xlink:href="#White_Black" />
    <linearGradient
       id="White_Black-3"
       x1="3265.1"
       y1="300.42"
       x2="2779.27"
       y2="-25.97"
       gradientTransform="translate(-7226.66 -1558.39)"
       xlink:href="#White_Black" />
    <mask
       id="mask"
       x="1901.8"
       y="-1460.12"
       width="168.2"
       height="109.01"
       maskUnits="userSpaceOnUse">
      <g
         transform="translate(-0.87 -59.01)"
         id="g2">
        <rect
           class="cls-1"
           x="1907.64"
           y="-1391.65"
           width="158.25"
           height="90.1"
           transform="translate(182.2 235.84) rotate(-7.12)"
           id="rect2" />
      </g>
    </mask>
    <mask
       id="mask-2"
       x="-4497.67"
       y="-1319.24"
       width="351.34"
       height="542.08"
       maskUnits="userSpaceOnUse">
      <g
         transform="translate(-0.87 -59.01)"
         id="g3">
        <rect
           class="cls-2"
           x="-4466.32"
           y="-1244.2"
           width="290.37"
           height="510.03"
           transform="translate(89.28 -543.15) rotate(-7.12)"
           id="rect3" />
      </g>
    </mask>
    <mask
       id="mask-3"
       x="-4659.48"
       y="-1778.77"
       width="542.08"
       height="351.34"
       maskUnits="userSpaceOnUse">
      <g
         transform="translate(-0.87 -59.01)"
         id="g4">
        <rect
           class="cls-3"
           x="-4642.58"
           y="-1689.28"
           width="510.03"
           height="290.37"
           transform="translate(157.54 -555.66) rotate(-7.12)"
           id="rect4" />
      </g>
    </mask>
  </defs>
  <path
     style="font-size:325.352px;font-family:'Ubuntu Mono';-inkscape-font-specification:'Ubuntu Mono, @wght=700';font-variation-settings:'wght' 700;fill:#ffffff;stroke-width:1.50999"
     d="M 21.522471,230.45949 V 7.9187269 Q 30.632327,5.641263 41.694295,4.665207 53.081614,3.3637991 64.143582,3.0384471 75.20555,2.3877431 83.664701,2.3877431 q 28.956329,0 49.128149,7.8084479 20.17183,7.483096 30.58309,24.076047 10.73661,16.592952 10.73661,43.597167 0,40.343645 -24.07604,58.563355 -23.7507,17.89436 -67.347864,17.89436 h -16.2676 v 76.13237 z M 66.421046,115.28488 h 18.219711 q 21.473233,0 32.535203,-8.45915 11.06196,-8.784502 11.06196,-29.281677 0,-19.846472 -11.06196,-27.980271 -10.73662,-8.1338 -28.305627,-8.1338 -4.229576,0 -11.387319,0.325352 -7.157744,0 -11.061968,0.650704 z M 272.36869,234.36371 q -16.2676,0 -29.60703,-2.92817 -13.33944,-2.92816 -23.1,-9.4352 -9.4352,-6.50704 -14.64084,-17.24366 -4.88028,-11.06197 -4.88028,-26.67886 0,-20.17183 10.08592,-31.55915 10.08591,-11.71267 26.35351,-16.59295 16.2676,-5.20563 34.48731,-5.20563 9.10985,0 16.9183,0.97606 7.80845,0.6507 13.99014,1.95211 v -5.53098 q 0,-8.45916 -3.57887,-14.9662 -3.57888,-6.83239 -11.38732,-10.736612 -7.80845,-3.904224 -20.82253,-3.904224 -12.68873,0 -24.4014,1.952112 -11.71267,1.62676 -19.19577,4.229576 l -6.18169,-36.114071 q 8.1338,-2.928168 23.42535,-5.205632 15.61689,-2.602816 31.88449,-2.602816 27.98027,0 43.92252,8.459152 15.94225,8.459152 22.44929,24.076047 6.83239,15.616898 6.83239,37.090128 v 102.16052 q -9.76056,2.27747 -29.28168,4.88028 -19.19577,2.92817 -43.27181,2.92817 z m 3.25352,-36.11407 q 7.15774,0 13.99013,-0.32535 7.15775,-0.32535 12.36338,-0.65071 v -39.36759 q -4.22958,-0.6507 -10.41127,-0.97605 -6.18168,-0.65071 -11.38732,-0.65071 -9.4352,0 -17.569,1.62676 -8.1338,1.62676 -13.33943,6.18169 -4.88028,4.22958 -4.88028,12.68873 0,11.38732 8.45915,16.59295 8.7845,4.88028 22.77464,4.88028 z m 123.30823,32.20985 V 70.386309 q 17.56901,-6.50704 36.43942,-10.411264 18.87042,-3.904224 43.92252,-3.904224 5.20563,0 14.96619,0.650704 9.76056,0.650704 20.49718,2.277464 10.73662,1.301408 18.87042,4.229576 l -8.1338,41.645055 q -5.53099,-1.62676 -13.99014,-2.92817 -8.45915,-1.30141 -16.59295,-1.95211 -8.1338,-0.976056 -13.66479,-0.976056 -9.4352,0 -18.54506,0.976056 -9.10985,0.6507 -18.54506,3.25352 v 127.21263 z m 237.83212,3.90422 q -16.2676,0 -29.60703,-2.92817 -13.33943,-2.92816 -23.09999,-9.4352 -9.43521,-6.50704 -14.64084,-17.24366 -4.88028,-11.06197 -4.88028,-26.67886 0,-20.17183 10.08591,-31.55915 10.08591,-11.71267 26.35351,-16.59295 16.2676,-5.20563 34.48731,-5.20563 9.10986,0 16.91831,0.97606 7.80844,0.6507 13.99013,1.95211 v -5.53098 q 0,-8.45916 -3.57887,-14.9662 -3.57887,-6.83239 -11.38732,-10.736612 -7.80845,-3.904224 -20.82253,-3.904224 -12.68872,0 -24.4014,1.952112 -11.71267,1.62676 -19.19576,4.229576 l -6.18169,-36.114071 q 8.1338,-2.928168 23.42534,-5.205632 15.6169,-2.602816 31.8845,-2.602816 27.98027,0 43.92252,8.459152 15.94224,8.459152 22.44928,24.076047 6.8324,15.616898 6.8324,37.090128 v 102.16052 q -9.76056,2.27747 -29.28168,4.88028 -19.19577,2.92817 -43.27182,2.92817 z m 3.25352,-36.11407 q 7.15775,0 13.99014,-0.32535 7.15774,-0.32535 12.36337,-0.65071 v -39.36759 q -4.22957,-0.6507 -10.41126,-0.97605 -6.18169,-0.65071 -11.38732,-0.65071 -9.43521,0 -17.56901,1.62676 -8.1338,1.62676 -13.33943,6.18169 -4.88028,4.22958 -4.88028,12.68873 0,11.38732 8.45915,16.59295 8.78451,4.88028 22.77464,4.88028 z m 182.19696,36.11407 q -26.35351,0 -44.57322,-10.73661 -18.21971,-10.73662 -27.65492,-30.58309 -9.10986,-19.84647 -9.10986,-47.17604 0,-27.98027 7.80845,-48.152094 7.80845,-20.171823 23.09999,-31.233791 15.29155,-11.061968 37.74083,-11.061968 9.10986,0 17.89436,2.277464 8.78451,1.952112 15.29155,5.530984 v -78.084477 l 44.89857,-7.483096 V 225.25386 q -12.36337,3.90422 -30.25773,6.50704 -17.89436,2.60281 -35.13802,2.60281 z m 0.32535,-38.39153 q 5.53099,0 10.41127,-0.32535 4.88028,-0.65071 9.76056,-1.30141 V 100.9694 q -4.88028,-2.928172 -11.71267,-4.880284 -6.50704,-1.952112 -13.99014,-1.952112 -10.41126,0 -17.24366,5.856336 -6.83239,5.85634 -10.08591,16.9183 -3.25352,10.73662 -3.25352,26.67887 0,23.09999 8.45915,37.74083 8.78451,14.64084 27.65492,14.64084 z m 178.61811,38.39153 q -16.26762,0 -29.60705,-2.92817 -13.33943,-2.92816 -23.09999,-9.4352 -9.43521,-6.50704 -14.64084,-17.24366 -4.88028,-11.06197 -4.88028,-26.67886 0,-20.17183 10.08591,-31.55915 10.08591,-11.71267 26.35351,-16.59295 16.2676,-5.20563 34.48731,-5.20563 9.10983,0 16.91833,0.97606 7.8084,0.6507 13.9901,1.95211 v -5.53098 q 0,-8.45916 -3.5789,-14.9662 -3.5788,-6.83239 -11.3873,-10.736612 -7.8084,-3.904224 -20.82251,-3.904224 -12.68872,0 -24.40139,1.952112 -11.71268,1.62676 -19.19577,4.229576 l -6.18169,-36.114071 q 8.1338,-2.928168 23.42534,-5.205632 15.6169,-2.602816 31.88452,-2.602816 27.9802,0 43.9225,8.459152 15.9422,8.459152 22.4493,24.076047 6.8324,15.616898 6.8324,37.090128 v 102.16052 q -9.7606,2.27747 -29.2817,4.88028 -19.1958,2.92817 -43.2718,2.92817 z m 3.2535,-36.11407 q 7.1577,0 13.9901,-0.32535 7.1578,-0.32535 12.3634,-0.65071 v -39.36759 q -4.2296,-0.6507 -10.4113,-0.97605 -6.1816,-0.65071 -11.3873,-0.65071 -9.43518,0 -17.56898,1.62676 -8.1338,1.62676 -13.33943,6.18169 -4.88028,4.22958 -4.88028,12.68873 0,11.38732 8.45915,16.59295 8.78451,4.88028 22.77464,4.88028 z m 162.6758,18.21971 v -63.11828 h -57.262 v -37.09013 h 57.262 V 53.142654 h 38.3915 v 63.118286 h 57.262 v 37.09013 h -57.262 v 63.11828 z"
     id="text12"
     transform="scale(1.0120653,0.98807855)"
     aria-label="Parada+" />
</svg>
